<svg width="30" height="28" viewBox="0 0 30 28" fill="none" xmlns="http://www.w3.org/2000/svg">
<mask id="mask0_6249_1024" style="mask-type:alpha" maskUnits="userSpaceOnUse" x="0" y="4" width="24" height="24">
<rect y="4" width="24" height="24" fill="#D9D9D9"/>
</mask>
<g mask="url(#mask0_6249_1024)">
<path d="M4.99984 25C4.71651 25 4.45818 24.9125 4.22484 24.7375C3.99151 24.5625 3.83317 24.3333 3.74984 24.05L0.949842 13.95C0.866508 13.7167 0.904008 13.5 1.06234 13.3C1.22068 13.1 1.43318 13 1.69984 13H6.74984L11.1498 6.45C11.2332 6.31667 11.3498 6.20833 11.4998 6.125C11.6498 6.04167 11.8082 6 11.9748 6C12.1415 6 12.2998 6.04167 12.4498 6.125C12.5998 6.20833 12.7165 6.31667 12.7998 6.45L17.1998 13H22.2998C22.5665 13 22.779 13.1 22.9373 13.3C23.0957 13.5 23.1332 13.7167 23.0498 13.95L20.2498 24.05C20.1665 24.3333 20.0082 24.5625 19.7748 24.7375C19.5415 24.9125 19.2832 25 18.9998 25H4.99984ZM5.49984 23H18.4998L20.6998 15H3.29984L5.49984 23ZM9.17484 13H14.7998L11.9748 8.8L9.17484 13Z" fill="white"/>
</g>
</svg>
